<svg xmlns="http://www.w3.org/2000/svg" viewBox="0 0 20 20" width="20" height="20">
  <rect x="7" y="2" width="1" height="1" fill="#000000"/>
  <rect x="8" y="2" width="1" height="1" fill="#000000"/>
  <rect x="11" y="2" width="1" height="1" fill="#000000"/>
  <rect x="12" y="2" width="1" height="1" fill="#000000"/>
  <rect x="6" y="3" width="1" height="1" fill="#000000"/>
  <rect x="13" y="3" width="1" height="1" fill="#000000"/>
  <rect x="5" y="4" width="1" height="1" fill="#000000"/>
  <rect x="14" y="4" width="1" height="1" fill="#000000"/>
  <rect x="3" y="6" width="1" height="1" fill="#000000"/>
  <rect x="16" y="6" width="1" height="1" fill="#000000"/>
  <rect x="2" y="7" width="1" height="1" fill="#000000"/>
  <rect x="17" y="7" width="1" height="1" fill="#000000"/>
  <rect x="2" y="8" width="1" height="1" fill="#000000"/>
  <rect x="17" y="8" width="1" height="1" fill="#000000"/>
  <rect x="2" y="11" width="1" height="1" fill="#000000"/>
  <rect x="17" y="11" width="1" height="1" fill="#000000"/>
  <rect x="2" y="12" width="1" height="1" fill="#000000"/>
  <rect x="17" y="12" width="1" height="1" fill="#000000"/>
  <rect x="3" y="13" width="1" height="1" fill="#000000"/>
  <rect x="16" y="13" width="1" height="1" fill="#000000"/>
  <rect x="5" y="15" width="1" height="1" fill="#000000"/>
  <rect x="14" y="15" width="1" height="1" fill="#000000"/>
  <rect x="6" y="16" width="1" height="1" fill="#000000"/>
  <rect x="13" y="16" width="1" height="1" fill="#000000"/>
  <rect x="7" y="17" width="1" height="1" fill="#000000"/>
  <rect x="8" y="17" width="1" height="1" fill="#000000"/>
  <rect x="11" y="17" width="1" height="1" fill="#000000"/>
  <rect x="12" y="17" width="1" height="1" fill="#000000"/>
</svg>