<svg xmlns="http://www.w3.org/2000/svg" viewBox="0 0 16 16" width="16" height="16">
  <rect x="5" y="1" width="1" height="1" fill="#000000"/>
  <rect x="10" y="1" width="1" height="1" fill="#000000"/>
  <rect x="4" y="2" width="1" height="1" fill="#000000"/>
  <rect x="5" y="2" width="1" height="1" fill="#000000"/>
  <rect x="6" y="2" width="1" height="1" fill="#000000"/>
  <rect x="9" y="2" width="1" height="1" fill="#000000"/>
  <rect x="10" y="2" width="1" height="1" fill="#000000"/>
  <rect x="11" y="2" width="1" height="1" fill="#000000"/>
  <rect x="5" y="3" width="1" height="1" fill="#000000"/>
  <rect x="10" y="3" width="1" height="1" fill="#000000"/>
  <rect x="5" y="6" width="1" height="1" fill="#000000"/>
  <rect x="10" y="6" width="1" height="1" fill="#000000"/>
  <rect x="4" y="7" width="1" height="1" fill="#000000"/>
  <rect x="5" y="7" width="1" height="1" fill="#000000"/>
  <rect x="6" y="7" width="1" height="1" fill="#000000"/>
  <rect x="9" y="7" width="1" height="1" fill="#000000"/>
  <rect x="10" y="7" width="1" height="1" fill="#000000"/>
  <rect x="11" y="7" width="1" height="1" fill="#000000"/>
  <rect x="5" y="8" width="1" height="1" fill="#000000"/>
  <rect x="10" y="8" width="1" height="1" fill="#000000"/>
  <rect x="5" y="11" width="1" height="1" fill="#000000"/>
  <rect x="10" y="11" width="1" height="1" fill="#000000"/>
  <rect x="4" y="12" width="1" height="1" fill="#000000"/>
  <rect x="5" y="12" width="1" height="1" fill="#000000"/>
  <rect x="6" y="12" width="1" height="1" fill="#000000"/>
  <rect x="9" y="12" width="1" height="1" fill="#000000"/>
  <rect x="10" y="12" width="1" height="1" fill="#000000"/>
  <rect x="11" y="12" width="1" height="1" fill="#000000"/>
  <rect x="5" y="13" width="1" height="1" fill="#000000"/>
  <rect x="10" y="13" width="1" height="1" fill="#000000"/>
</svg>