<svg xmlns="http://www.w3.org/2000/svg" viewBox="0 0 16 16" width="16" height="16">
  <rect x="7" y="1" width="1" height="1" fill="#000000"/>
  <rect x="6" y="2" width="1" height="1" fill="#000000"/>
  <rect x="7" y="2" width="1" height="1" fill="#000000"/>
  <rect x="8" y="2" width="1" height="1" fill="#000000"/>
  <rect x="7" y="3" width="1" height="1" fill="#000000"/>
  <rect x="7" y="6" width="1" height="1" fill="#000000"/>
  <rect x="6" y="7" width="1" height="1" fill="#000000"/>
  <rect x="7" y="7" width="1" height="1" fill="#000000"/>
  <rect x="8" y="7" width="1" height="1" fill="#000000"/>
  <rect x="7" y="8" width="1" height="1" fill="#000000"/>
  <rect x="7" y="11" width="1" height="1" fill="#000000"/>
  <rect x="6" y="12" width="1" height="1" fill="#000000"/>
  <rect x="7" y="12" width="1" height="1" fill="#000000"/>
  <rect x="8" y="12" width="1" height="1" fill="#000000"/>
  <rect x="7" y="13" width="1" height="1" fill="#000000"/>
</svg>