<svg xmlns="http://www.w3.org/2000/svg" viewBox="0 0 16 16" width="16" height="16">
  <rect x="2" y="2" width="1" height="1" fill="#000000"/>
  <rect x="3" y="2" width="1" height="1" fill="#000000"/>
  <rect x="7" y="2" width="1" height="1" fill="#000000"/>
  <rect x="8" y="2" width="1" height="1" fill="#000000"/>
  <rect x="12" y="2" width="1" height="1" fill="#000000"/>
  <rect x="13" y="2" width="1" height="1" fill="#000000"/>
  <rect x="2" y="3" width="1" height="1" fill="#000000"/>
  <rect x="3" y="3" width="1" height="1" fill="#000000"/>
  <rect x="7" y="3" width="1" height="1" fill="#000000"/>
  <rect x="8" y="3" width="1" height="1" fill="#000000"/>
  <rect x="12" y="3" width="1" height="1" fill="#000000"/>
  <rect x="13" y="3" width="1" height="1" fill="#000000"/>
  <rect x="2" y="7" width="1" height="1" fill="#000000"/>
  <rect x="3" y="7" width="1" height="1" fill="#000000"/>
  <rect x="7" y="7" width="1" height="1" fill="#000000"/>
  <rect x="8" y="7" width="1" height="1" fill="#000000"/>
  <rect x="12" y="7" width="1" height="1" fill="#000000"/>
  <rect x="13" y="7" width="1" height="1" fill="#000000"/>
  <rect x="2" y="8" width="1" height="1" fill="#000000"/>
  <rect x="3" y="8" width="1" height="1" fill="#000000"/>
  <rect x="7" y="8" width="1" height="1" fill="#000000"/>
  <rect x="8" y="8" width="1" height="1" fill="#000000"/>
  <rect x="12" y="8" width="1" height="1" fill="#000000"/>
  <rect x="13" y="8" width="1" height="1" fill="#000000"/>
  <rect x="2" y="12" width="1" height="1" fill="#000000"/>
  <rect x="3" y="12" width="1" height="1" fill="#000000"/>
  <rect x="7" y="12" width="1" height="1" fill="#000000"/>
  <rect x="8" y="12" width="1" height="1" fill="#000000"/>
  <rect x="12" y="12" width="1" height="1" fill="#000000"/>
  <rect x="13" y="12" width="1" height="1" fill="#000000"/>
  <rect x="2" y="13" width="1" height="1" fill="#000000"/>
  <rect x="3" y="13" width="1" height="1" fill="#000000"/>
  <rect x="7" y="13" width="1" height="1" fill="#000000"/>
  <rect x="8" y="13" width="1" height="1" fill="#000000"/>
  <rect x="12" y="13" width="1" height="1" fill="#000000"/>
  <rect x="13" y="13" width="1" height="1" fill="#000000"/>
</svg>