<svg xmlns="http://www.w3.org/2000/svg" viewBox="0 0 40 40" width="40" height="40">
  <rect x="15" y="2" width="1" height="1" fill="#7a2f45"/>
  <rect x="16" y="2" width="1" height="1" fill="#7a2f45"/>
  <rect x="17" y="2" width="1" height="1" fill="#7a2f45"/>
  <rect x="18" y="2" width="1" height="1" fill="#7a2f45"/>
  <rect x="19" y="2" width="1" height="1" fill="#7a2f45"/>
  <rect x="20" y="2" width="1" height="1" fill="#7a2f45"/>
  <rect x="21" y="2" width="1" height="1" fill="#7a2f45"/>
  <rect x="22" y="2" width="1" height="1" fill="#7a2f45"/>
  <rect x="23" y="2" width="1" height="1" fill="#7a2f45"/>
  <rect x="24" y="2" width="1" height="1" fill="#7a2f45"/>
  <rect x="13" y="3" width="1" height="1" fill="#7a2f45"/>
  <rect x="14" y="3" width="1" height="1" fill="#7a2f45"/>
  <rect x="15" y="3" width="1" height="1" fill="#fea1af"/>
  <rect x="16" y="3" width="1" height="1" fill="#fea1af"/>
  <rect x="17" y="3" width="1" height="1" fill="#fea1af"/>
  <rect x="18" y="3" width="1" height="1" fill="#fea1af"/>
  <rect x="19" y="3" width="1" height="1" fill="#fea1af"/>
  <rect x="20" y="3" width="1" height="1" fill="#fea1af"/>
  <rect x="21" y="3" width="1" height="1" fill="#fea1af"/>
  <rect x="22" y="3" width="1" height="1" fill="#e77686"/>
  <rect x="23" y="3" width="1" height="1" fill="#e77686"/>
  <rect x="24" y="3" width="1" height="1" fill="#e77686"/>
  <rect x="25" y="3" width="1" height="1" fill="#7a2f45"/>
  <rect x="26" y="3" width="1" height="1" fill="#7a2f45"/>
  <rect x="11" y="4" width="1" height="1" fill="#7a2f45"/>
  <rect x="12" y="4" width="1" height="1" fill="#7a2f45"/>
  <rect x="13" y="4" width="1" height="1" fill="#fea1af"/>
  <rect x="14" y="4" width="1" height="1" fill="#fea1af"/>
  <rect x="15" y="4" width="1" height="1" fill="#fea1af"/>
  <rect x="16" y="4" width="1" height="1" fill="#fea1af"/>
  <rect x="17" y="4" width="1" height="1" fill="#fea1af"/>
  <rect x="18" y="4" width="1" height="1" fill="#fea1af"/>
  <rect x="19" y="4" width="1" height="1" fill="#fea1af"/>
  <rect x="20" y="4" width="1" height="1" fill="#fea1af"/>
  <rect x="21" y="4" width="1" height="1" fill="#e77686"/>
  <rect x="22" y="4" width="1" height="1" fill="#e77686"/>
  <rect x="23" y="4" width="1" height="1" fill="#e77686"/>
  <rect x="24" y="4" width="1" height="1" fill="#e77686"/>
  <rect x="25" y="4" width="1" height="1" fill="#e77686"/>
  <rect x="26" y="4" width="1" height="1" fill="#e77686"/>
  <rect x="27" y="4" width="1" height="1" fill="#7a2f45"/>
  <rect x="28" y="4" width="1" height="1" fill="#7a2f45"/>
  <rect x="9" y="5" width="1" height="1" fill="#7a2f45"/>
  <rect x="10" y="5" width="1" height="1" fill="#7a2f45"/>
  <rect x="11" y="5" width="1" height="1" fill="#fea1af"/>
  <rect x="12" y="5" width="1" height="1" fill="#fea1af"/>
  <rect x="13" y="5" width="1" height="1" fill="#fea1af"/>
  <rect x="14" y="5" width="1" height="1" fill="#fea1af"/>
  <rect x="15" y="5" width="1" height="1" fill="#fea1af"/>
  <rect x="24" y="5" width="1" height="1" fill="#e77686"/>
  <rect x="25" y="5" width="1" height="1" fill="#e77686"/>
  <rect x="26" y="5" width="1" height="1" fill="#e77686"/>
  <rect x="27" y="5" width="1" height="1" fill="#e77686"/>
  <rect x="28" y="5" width="1" height="1" fill="#e77686"/>
  <rect x="29" y="5" width="1" height="1" fill="#7a2f45"/>
  <rect x="30" y="5" width="1" height="1" fill="#7a2f45"/>
  <rect x="8" y="6" width="1" height="1" fill="#7a2f45"/>
  <rect x="9" y="6" width="1" height="1" fill="#fea1af"/>
  <rect x="10" y="6" width="1" height="1" fill="#fea1af"/>
  <rect x="11" y="6" width="1" height="1" fill="#fea1af"/>
  <rect x="12" y="6" width="1" height="1" fill="#fea1af"/>
  <rect x="27" y="6" width="1" height="1" fill="#e77686"/>
  <rect x="28" y="6" width="1" height="1" fill="#e77686"/>
  <rect x="29" y="6" width="1" height="1" fill="#e77686"/>
  <rect x="30" y="6" width="1" height="1" fill="#e77686"/>
  <rect x="31" y="6" width="1" height="1" fill="#7a2f45"/>
  <rect x="7" y="7" width="1" height="1" fill="#7a2f45"/>
  <rect x="8" y="7" width="1" height="1" fill="#fea1af"/>
  <rect x="9" y="7" width="1" height="1" fill="#fea1af"/>
  <rect x="10" y="7" width="1" height="1" fill="#fea1af"/>
  <rect x="11" y="7" width="1" height="1" fill="#fea1af"/>
  <rect x="28" y="7" width="1" height="1" fill="#e77686"/>
  <rect x="29" y="7" width="1" height="1" fill="#e77686"/>
  <rect x="30" y="7" width="1" height="1" fill="#e77686"/>
  <rect x="31" y="7" width="1" height="1" fill="#e77686"/>
  <rect x="32" y="7" width="1" height="1" fill="#7a2f45"/>
  <rect x="6" y="8" width="1" height="1" fill="#7a2f45"/>
  <rect x="7" y="8" width="1" height="1" fill="#fea1af"/>
  <rect x="8" y="8" width="1" height="1" fill="#fea1af"/>
  <rect x="9" y="8" width="1" height="1" fill="#fea1af"/>
  <rect x="30" y="8" width="1" height="1" fill="#e77686"/>
  <rect x="31" y="8" width="1" height="1" fill="#e77686"/>
  <rect x="32" y="8" width="1" height="1" fill="#e77686"/>
  <rect x="33" y="8" width="1" height="1" fill="#7a2f45"/>
  <rect x="5" y="9" width="1" height="1" fill="#7a2f45"/>
  <rect x="6" y="9" width="1" height="1" fill="#fea1af"/>
  <rect x="7" y="9" width="1" height="1" fill="#fea1af"/>
  <rect x="8" y="9" width="1" height="1" fill="#fea1af"/>
  <rect x="31" y="9" width="1" height="1" fill="#e77686"/>
  <rect x="32" y="9" width="1" height="1" fill="#e77686"/>
  <rect x="33" y="9" width="1" height="1" fill="#e77686"/>
  <rect x="34" y="9" width="1" height="1" fill="#7a2f45"/>
  <rect x="5" y="10" width="1" height="1" fill="#7a2f45"/>
  <rect x="6" y="10" width="1" height="1" fill="#fea1af"/>
  <rect x="7" y="10" width="1" height="1" fill="#fea1af"/>
  <rect x="32" y="10" width="1" height="1" fill="#e77686"/>
  <rect x="33" y="10" width="1" height="1" fill="#e77686"/>
  <rect x="34" y="10" width="1" height="1" fill="#7a2f45"/>
  <rect x="4" y="11" width="1" height="1" fill="#7a2f45"/>
  <rect x="5" y="11" width="1" height="1" fill="#fea1af"/>
  <rect x="6" y="11" width="1" height="1" fill="#fea1af"/>
  <rect x="7" y="11" width="1" height="1" fill="#fea1af"/>
  <rect x="32" y="11" width="1" height="1" fill="#e77686"/>
  <rect x="33" y="11" width="1" height="1" fill="#e77686"/>
  <rect x="34" y="11" width="1" height="1" fill="#e77686"/>
  <rect x="35" y="11" width="1" height="1" fill="#7a2f45"/>
  <rect x="4" y="12" width="1" height="1" fill="#7a2f45"/>
  <rect x="5" y="12" width="1" height="1" fill="#fea1af"/>
  <rect x="6" y="12" width="1" height="1" fill="#fea1af"/>
  <rect x="33" y="12" width="1" height="1" fill="#e77686"/>
  <rect x="34" y="12" width="1" height="1" fill="#e77686"/>
  <rect x="35" y="12" width="1" height="1" fill="#7a2f45"/>
  <rect x="3" y="13" width="1" height="1" fill="#7a2f45"/>
  <rect x="4" y="13" width="1" height="1" fill="#fea1af"/>
  <rect x="5" y="13" width="1" height="1" fill="#fea1af"/>
  <rect x="34" y="13" width="1" height="1" fill="#e77686"/>
  <rect x="35" y="13" width="1" height="1" fill="#e77686"/>
  <rect x="36" y="13" width="1" height="1" fill="#7a2f45"/>
  <rect x="3" y="14" width="1" height="1" fill="#7a2f45"/>
  <rect x="4" y="14" width="1" height="1" fill="#fea1af"/>
  <rect x="5" y="14" width="1" height="1" fill="#fea1af"/>
  <rect x="34" y="14" width="1" height="1" fill="#e77686"/>
  <rect x="35" y="14" width="1" height="1" fill="#e77686"/>
  <rect x="36" y="14" width="1" height="1" fill="#7a2f45"/>
  <rect x="2" y="15" width="1" height="1" fill="#7a2f45"/>
  <rect x="3" y="15" width="1" height="1" fill="#fea1af"/>
  <rect x="4" y="15" width="1" height="1" fill="#fea1af"/>
  <rect x="5" y="15" width="1" height="1" fill="#fea1af"/>
  <rect x="34" y="15" width="1" height="1" fill="#e77686"/>
  <rect x="35" y="15" width="1" height="1" fill="#b7436c"/>
  <rect x="36" y="15" width="1" height="1" fill="#b7436c"/>
  <rect x="37" y="15" width="1" height="1" fill="#7a2f45"/>
  <rect x="2" y="16" width="1" height="1" fill="#7a2f45"/>
  <rect x="3" y="16" width="1" height="1" fill="#fea1af"/>
  <rect x="4" y="16" width="1" height="1" fill="#fea1af"/>
  <rect x="35" y="16" width="1" height="1" fill="#b7436c"/>
  <rect x="36" y="16" width="1" height="1" fill="#b7436c"/>
  <rect x="37" y="16" width="1" height="1" fill="#7a2f45"/>
  <rect x="2" y="17" width="1" height="1" fill="#7a2f45"/>
  <rect x="3" y="17" width="1" height="1" fill="#fea1af"/>
  <rect x="4" y="17" width="1" height="1" fill="#fea1af"/>
  <rect x="35" y="17" width="1" height="1" fill="#b7436c"/>
  <rect x="36" y="17" width="1" height="1" fill="#b7436c"/>
  <rect x="37" y="17" width="1" height="1" fill="#7a2f45"/>
  <rect x="2" y="18" width="1" height="1" fill="#7a2f45"/>
  <rect x="3" y="18" width="1" height="1" fill="#fea1af"/>
  <rect x="4" y="18" width="1" height="1" fill="#fea1af"/>
  <rect x="35" y="18" width="1" height="1" fill="#b7436c"/>
  <rect x="36" y="18" width="1" height="1" fill="#b7436c"/>
  <rect x="37" y="18" width="1" height="1" fill="#7a2f45"/>
  <rect x="2" y="19" width="1" height="1" fill="#7a2f45"/>
  <rect x="3" y="19" width="1" height="1" fill="#fea1af"/>
  <rect x="4" y="19" width="1" height="1" fill="#fea1af"/>
  <rect x="35" y="19" width="1" height="1" fill="#b7436c"/>
  <rect x="36" y="19" width="1" height="1" fill="#b7436c"/>
  <rect x="37" y="19" width="1" height="1" fill="#7a2f45"/>
  <rect x="2" y="20" width="1" height="1" fill="#7a2f45"/>
  <rect x="3" y="20" width="1" height="1" fill="#fea1af"/>
  <rect x="4" y="20" width="1" height="1" fill="#fea1af"/>
  <rect x="35" y="20" width="1" height="1" fill="#b7436c"/>
  <rect x="36" y="20" width="1" height="1" fill="#b7436c"/>
  <rect x="37" y="20" width="1" height="1" fill="#7a2f45"/>
  <rect x="2" y="21" width="1" height="1" fill="#7a2f45"/>
  <rect x="3" y="21" width="1" height="1" fill="#fea1af"/>
  <rect x="4" y="21" width="1" height="1" fill="#fea1af"/>
  <rect x="35" y="21" width="1" height="1" fill="#b7436c"/>
  <rect x="36" y="21" width="1" height="1" fill="#b7436c"/>
  <rect x="37" y="21" width="1" height="1" fill="#7a2f45"/>
  <rect x="2" y="22" width="1" height="1" fill="#7a2f45"/>
  <rect x="3" y="22" width="1" height="1" fill="#fea1af"/>
  <rect x="4" y="22" width="1" height="1" fill="#fea1af"/>
  <rect x="35" y="22" width="1" height="1" fill="#b7436c"/>
  <rect x="36" y="22" width="1" height="1" fill="#b7436c"/>
  <rect x="37" y="22" width="1" height="1" fill="#7a2f45"/>
  <rect x="2" y="23" width="1" height="1" fill="#7a2f45"/>
  <rect x="3" y="23" width="1" height="1" fill="#fea1af"/>
  <rect x="4" y="23" width="1" height="1" fill="#fea1af"/>
  <rect x="35" y="23" width="1" height="1" fill="#b7436c"/>
  <rect x="36" y="23" width="1" height="1" fill="#b7436c"/>
  <rect x="37" y="23" width="1" height="1" fill="#7a2f45"/>
  <rect x="2" y="24" width="1" height="1" fill="#7a2f45"/>
  <rect x="3" y="24" width="1" height="1" fill="#fea1af"/>
  <rect x="4" y="24" width="1" height="1" fill="#fea1af"/>
  <rect x="5" y="24" width="1" height="1" fill="#e77686"/>
  <rect x="34" y="24" width="1" height="1" fill="#b7436c"/>
  <rect x="35" y="24" width="1" height="1" fill="#b7436c"/>
  <rect x="36" y="24" width="1" height="1" fill="#b7436c"/>
  <rect x="37" y="24" width="1" height="1" fill="#7a2f45"/>
  <rect x="3" y="25" width="1" height="1" fill="#7a2f45"/>
  <rect x="4" y="25" width="1" height="1" fill="#e77686"/>
  <rect x="5" y="25" width="1" height="1" fill="#e77686"/>
  <rect x="34" y="25" width="1" height="1" fill="#b7436c"/>
  <rect x="35" y="25" width="1" height="1" fill="#b7436c"/>
  <rect x="36" y="25" width="1" height="1" fill="#7a2f45"/>
  <rect x="3" y="26" width="1" height="1" fill="#7a2f45"/>
  <rect x="4" y="26" width="1" height="1" fill="#e77686"/>
  <rect x="5" y="26" width="1" height="1" fill="#e77686"/>
  <rect x="34" y="26" width="1" height="1" fill="#b7436c"/>
  <rect x="35" y="26" width="1" height="1" fill="#b7436c"/>
  <rect x="36" y="26" width="1" height="1" fill="#7a2f45"/>
  <rect x="4" y="27" width="1" height="1" fill="#7a2f45"/>
  <rect x="5" y="27" width="1" height="1" fill="#e77686"/>
  <rect x="6" y="27" width="1" height="1" fill="#e77686"/>
  <rect x="33" y="27" width="1" height="1" fill="#b7436c"/>
  <rect x="34" y="27" width="1" height="1" fill="#b7436c"/>
  <rect x="35" y="27" width="1" height="1" fill="#7a2f45"/>
  <rect x="4" y="28" width="1" height="1" fill="#7a2f45"/>
  <rect x="5" y="28" width="1" height="1" fill="#e77686"/>
  <rect x="6" y="28" width="1" height="1" fill="#e77686"/>
  <rect x="7" y="28" width="1" height="1" fill="#e77686"/>
  <rect x="32" y="28" width="1" height="1" fill="#b7436c"/>
  <rect x="33" y="28" width="1" height="1" fill="#b7436c"/>
  <rect x="34" y="28" width="1" height="1" fill="#b7436c"/>
  <rect x="35" y="28" width="1" height="1" fill="#7a2f45"/>
  <rect x="5" y="29" width="1" height="1" fill="#7a2f45"/>
  <rect x="6" y="29" width="1" height="1" fill="#e77686"/>
  <rect x="7" y="29" width="1" height="1" fill="#e77686"/>
  <rect x="32" y="29" width="1" height="1" fill="#b7436c"/>
  <rect x="33" y="29" width="1" height="1" fill="#b7436c"/>
  <rect x="34" y="29" width="1" height="1" fill="#7a2f45"/>
  <rect x="5" y="30" width="1" height="1" fill="#7a2f45"/>
  <rect x="6" y="30" width="1" height="1" fill="#e77686"/>
  <rect x="7" y="30" width="1" height="1" fill="#e77686"/>
  <rect x="8" y="30" width="1" height="1" fill="#e77686"/>
  <rect x="31" y="30" width="1" height="1" fill="#b7436c"/>
  <rect x="32" y="30" width="1" height="1" fill="#b7436c"/>
  <rect x="33" y="30" width="1" height="1" fill="#b7436c"/>
  <rect x="34" y="30" width="1" height="1" fill="#7a2f45"/>
  <rect x="6" y="31" width="1" height="1" fill="#7a2f45"/>
  <rect x="7" y="31" width="1" height="1" fill="#e77686"/>
  <rect x="8" y="31" width="1" height="1" fill="#e77686"/>
  <rect x="9" y="31" width="1" height="1" fill="#e77686"/>
  <rect x="30" y="31" width="1" height="1" fill="#b7436c"/>
  <rect x="31" y="31" width="1" height="1" fill="#b7436c"/>
  <rect x="32" y="31" width="1" height="1" fill="#b7436c"/>
  <rect x="33" y="31" width="1" height="1" fill="#7a2f45"/>
  <rect x="7" y="32" width="1" height="1" fill="#7a2f45"/>
  <rect x="8" y="32" width="1" height="1" fill="#e77686"/>
  <rect x="9" y="32" width="1" height="1" fill="#e77686"/>
  <rect x="10" y="32" width="1" height="1" fill="#e77686"/>
  <rect x="11" y="32" width="1" height="1" fill="#e77686"/>
  <rect x="28" y="32" width="1" height="1" fill="#b7436c"/>
  <rect x="29" y="32" width="1" height="1" fill="#b7436c"/>
  <rect x="30" y="32" width="1" height="1" fill="#b7436c"/>
  <rect x="31" y="32" width="1" height="1" fill="#b7436c"/>
  <rect x="32" y="32" width="1" height="1" fill="#7a2f45"/>
  <rect x="8" y="33" width="1" height="1" fill="#7a2f45"/>
  <rect x="9" y="33" width="1" height="1" fill="#e77686"/>
  <rect x="10" y="33" width="1" height="1" fill="#e77686"/>
  <rect x="11" y="33" width="1" height="1" fill="#e77686"/>
  <rect x="12" y="33" width="1" height="1" fill="#e77686"/>
  <rect x="27" y="33" width="1" height="1" fill="#b7436c"/>
  <rect x="28" y="33" width="1" height="1" fill="#b7436c"/>
  <rect x="29" y="33" width="1" height="1" fill="#b7436c"/>
  <rect x="30" y="33" width="1" height="1" fill="#b7436c"/>
  <rect x="31" y="33" width="1" height="1" fill="#7a2f45"/>
  <rect x="9" y="34" width="1" height="1" fill="#7a2f45"/>
  <rect x="10" y="34" width="1" height="1" fill="#7a2f45"/>
  <rect x="11" y="34" width="1" height="1" fill="#e77686"/>
  <rect x="12" y="34" width="1" height="1" fill="#e77686"/>
  <rect x="13" y="34" width="1" height="1" fill="#e77686"/>
  <rect x="14" y="34" width="1" height="1" fill="#e77686"/>
  <rect x="15" y="34" width="1" height="1" fill="#e77686"/>
  <rect x="24" y="34" width="1" height="1" fill="#b7436c"/>
  <rect x="25" y="34" width="1" height="1" fill="#b7436c"/>
  <rect x="26" y="34" width="1" height="1" fill="#b7436c"/>
  <rect x="27" y="34" width="1" height="1" fill="#b7436c"/>
  <rect x="28" y="34" width="1" height="1" fill="#b7436c"/>
  <rect x="29" y="34" width="1" height="1" fill="#7a2f45"/>
  <rect x="30" y="34" width="1" height="1" fill="#7a2f45"/>
  <rect x="11" y="35" width="1" height="1" fill="#7a2f45"/>
  <rect x="12" y="35" width="1" height="1" fill="#7a2f45"/>
  <rect x="13" y="35" width="1" height="1" fill="#e77686"/>
  <rect x="14" y="35" width="1" height="1" fill="#e77686"/>
  <rect x="15" y="35" width="1" height="1" fill="#e77686"/>
  <rect x="16" y="35" width="1" height="1" fill="#e77686"/>
  <rect x="17" y="35" width="1" height="1" fill="#e77686"/>
  <rect x="18" y="35" width="1" height="1" fill="#e77686"/>
  <rect x="19" y="35" width="1" height="1" fill="#b7436c"/>
  <rect x="20" y="35" width="1" height="1" fill="#b7436c"/>
  <rect x="21" y="35" width="1" height="1" fill="#b7436c"/>
  <rect x="22" y="35" width="1" height="1" fill="#b7436c"/>
  <rect x="23" y="35" width="1" height="1" fill="#b7436c"/>
  <rect x="24" y="35" width="1" height="1" fill="#b7436c"/>
  <rect x="25" y="35" width="1" height="1" fill="#b7436c"/>
  <rect x="26" y="35" width="1" height="1" fill="#b7436c"/>
  <rect x="27" y="35" width="1" height="1" fill="#7a2f45"/>
  <rect x="28" y="35" width="1" height="1" fill="#7a2f45"/>
  <rect x="13" y="36" width="1" height="1" fill="#7a2f45"/>
  <rect x="14" y="36" width="1" height="1" fill="#7a2f45"/>
  <rect x="15" y="36" width="1" height="1" fill="#e77686"/>
  <rect x="16" y="36" width="1" height="1" fill="#e77686"/>
  <rect x="17" y="36" width="1" height="1" fill="#e77686"/>
  <rect x="18" y="36" width="1" height="1" fill="#b7436c"/>
  <rect x="19" y="36" width="1" height="1" fill="#b7436c"/>
  <rect x="20" y="36" width="1" height="1" fill="#b7436c"/>
  <rect x="21" y="36" width="1" height="1" fill="#b7436c"/>
  <rect x="22" y="36" width="1" height="1" fill="#b7436c"/>
  <rect x="23" y="36" width="1" height="1" fill="#b7436c"/>
  <rect x="24" y="36" width="1" height="1" fill="#b7436c"/>
  <rect x="25" y="36" width="1" height="1" fill="#7a2f45"/>
  <rect x="26" y="36" width="1" height="1" fill="#7a2f45"/>
  <rect x="15" y="37" width="1" height="1" fill="#7a2f45"/>
  <rect x="16" y="37" width="1" height="1" fill="#7a2f45"/>
  <rect x="17" y="37" width="1" height="1" fill="#7a2f45"/>
  <rect x="18" y="37" width="1" height="1" fill="#7a2f45"/>
  <rect x="19" y="37" width="1" height="1" fill="#7a2f45"/>
  <rect x="20" y="37" width="1" height="1" fill="#7a2f45"/>
  <rect x="21" y="37" width="1" height="1" fill="#7a2f45"/>
  <rect x="22" y="37" width="1" height="1" fill="#7a2f45"/>
  <rect x="23" y="37" width="1" height="1" fill="#7a2f45"/>
  <rect x="24" y="37" width="1" height="1" fill="#7a2f45"/>
</svg>
