<svg xmlns="http://www.w3.org/2000/svg" viewBox="0 0 40 40" width="40" height="40">
  <rect x="4" y="4" width="1" height="1" fill="#112260"/>
  <rect x="5" y="4" width="1" height="1" fill="#112260"/>
  <rect x="6" y="4" width="1" height="1" fill="#112260"/>
  <rect x="7" y="4" width="1" height="1" fill="#112260"/>
  <rect x="8" y="4" width="1" height="1" fill="#112260"/>
  <rect x="9" y="4" width="1" height="1" fill="#112260"/>
  <rect x="10" y="4" width="1" height="1" fill="#112260"/>
  <rect x="11" y="4" width="1" height="1" fill="#112260"/>
  <rect x="12" y="4" width="1" height="1" fill="#112260"/>
  <rect x="13" y="4" width="1" height="1" fill="#112260"/>
  <rect x="14" y="4" width="1" height="1" fill="#112260"/>
  <rect x="15" y="4" width="1" height="1" fill="#112260"/>
  <rect x="16" y="4" width="1" height="1" fill="#112260"/>
  <rect x="17" y="4" width="1" height="1" fill="#112260"/>
  <rect x="18" y="4" width="1" height="1" fill="#112260"/>
  <rect x="19" y="4" width="1" height="1" fill="#112260"/>
  <rect x="20" y="4" width="1" height="1" fill="#112260"/>
  <rect x="21" y="4" width="1" height="1" fill="#112260"/>
  <rect x="22" y="4" width="1" height="1" fill="#112260"/>
  <rect x="23" y="4" width="1" height="1" fill="#112260"/>
  <rect x="24" y="4" width="1" height="1" fill="#112260"/>
  <rect x="25" y="4" width="1" height="1" fill="#112260"/>
  <rect x="26" y="4" width="1" height="1" fill="#112260"/>
  <rect x="27" y="4" width="1" height="1" fill="#112260"/>
  <rect x="28" y="4" width="1" height="1" fill="#112260"/>
  <rect x="29" y="4" width="1" height="1" fill="#112260"/>
  <rect x="30" y="4" width="1" height="1" fill="#112260"/>
  <rect x="31" y="4" width="1" height="1" fill="#112260"/>
  <rect x="32" y="4" width="1" height="1" fill="#112260"/>
  <rect x="33" y="4" width="1" height="1" fill="#112260"/>
  <rect x="34" y="4" width="1" height="1" fill="#112260"/>
  <rect x="35" y="4" width="1" height="1" fill="#112260"/>
  <rect x="4" y="5" width="1" height="1" fill="#112260"/>
  <rect x="5" y="5" width="1" height="1" fill="#aebff4"/>
  <rect x="6" y="5" width="1" height="1" fill="#aebff4"/>
  <rect x="7" y="5" width="1" height="1" fill="#aebff4"/>
  <rect x="8" y="5" width="1" height="1" fill="#aebff4"/>
  <rect x="9" y="5" width="1" height="1" fill="#aebff4"/>
  <rect x="10" y="5" width="1" height="1" fill="#aebff4"/>
  <rect x="11" y="5" width="1" height="1" fill="#aebff4"/>
  <rect x="12" y="5" width="1" height="1" fill="#aebff4"/>
  <rect x="13" y="5" width="1" height="1" fill="#aebff4"/>
  <rect x="14" y="5" width="1" height="1" fill="#aebff4"/>
  <rect x="15" y="5" width="1" height="1" fill="#aebff4"/>
  <rect x="16" y="5" width="1" height="1" fill="#aebff4"/>
  <rect x="17" y="5" width="1" height="1" fill="#aebff4"/>
  <rect x="18" y="5" width="1" height="1" fill="#aebff4"/>
  <rect x="19" y="5" width="1" height="1" fill="#aebff4"/>
  <rect x="20" y="5" width="1" height="1" fill="#aebff4"/>
  <rect x="21" y="5" width="1" height="1" fill="#aebff4"/>
  <rect x="22" y="5" width="1" height="1" fill="#7690e7"/>
  <rect x="23" y="5" width="1" height="1" fill="#7690e7"/>
  <rect x="24" y="5" width="1" height="1" fill="#7690e7"/>
  <rect x="25" y="5" width="1" height="1" fill="#7690e7"/>
  <rect x="26" y="5" width="1" height="1" fill="#7690e7"/>
  <rect x="27" y="5" width="1" height="1" fill="#7690e7"/>
  <rect x="28" y="5" width="1" height="1" fill="#7690e7"/>
  <rect x="29" y="5" width="1" height="1" fill="#7690e7"/>
  <rect x="30" y="5" width="1" height="1" fill="#7690e7"/>
  <rect x="31" y="5" width="1" height="1" fill="#7690e7"/>
  <rect x="32" y="5" width="1" height="1" fill="#7690e7"/>
  <rect x="33" y="5" width="1" height="1" fill="#7690e7"/>
  <rect x="34" y="5" width="1" height="1" fill="#7690e7"/>
  <rect x="35" y="5" width="1" height="1" fill="#112260"/>
  <rect x="4" y="6" width="1" height="1" fill="#112260"/>
  <rect x="5" y="6" width="1" height="1" fill="#aebff4"/>
  <rect x="6" y="6" width="1" height="1" fill="#aebff4"/>
  <rect x="7" y="6" width="1" height="1" fill="#aebff4"/>
  <rect x="8" y="6" width="1" height="1" fill="#aebff4"/>
  <rect x="9" y="6" width="1" height="1" fill="#aebff4"/>
  <rect x="10" y="6" width="1" height="1" fill="#aebff4"/>
  <rect x="11" y="6" width="1" height="1" fill="#aebff4"/>
  <rect x="12" y="6" width="1" height="1" fill="#aebff4"/>
  <rect x="13" y="6" width="1" height="1" fill="#aebff4"/>
  <rect x="14" y="6" width="1" height="1" fill="#aebff4"/>
  <rect x="15" y="6" width="1" height="1" fill="#aebff4"/>
  <rect x="16" y="6" width="1" height="1" fill="#aebff4"/>
  <rect x="17" y="6" width="1" height="1" fill="#aebff4"/>
  <rect x="18" y="6" width="1" height="1" fill="#aebff4"/>
  <rect x="19" y="6" width="1" height="1" fill="#aebff4"/>
  <rect x="20" y="6" width="1" height="1" fill="#aebff4"/>
  <rect x="21" y="6" width="1" height="1" fill="#7690e7"/>
  <rect x="22" y="6" width="1" height="1" fill="#7690e7"/>
  <rect x="23" y="6" width="1" height="1" fill="#7690e7"/>
  <rect x="24" y="6" width="1" height="1" fill="#7690e7"/>
  <rect x="25" y="6" width="1" height="1" fill="#7690e7"/>
  <rect x="26" y="6" width="1" height="1" fill="#7690e7"/>
  <rect x="27" y="6" width="1" height="1" fill="#7690e7"/>
  <rect x="28" y="6" width="1" height="1" fill="#7690e7"/>
  <rect x="29" y="6" width="1" height="1" fill="#7690e7"/>
  <rect x="30" y="6" width="1" height="1" fill="#7690e7"/>
  <rect x="31" y="6" width="1" height="1" fill="#7690e7"/>
  <rect x="32" y="6" width="1" height="1" fill="#7690e7"/>
  <rect x="33" y="6" width="1" height="1" fill="#7690e7"/>
  <rect x="34" y="6" width="1" height="1" fill="#7690e7"/>
  <rect x="35" y="6" width="1" height="1" fill="#112260"/>
  <rect x="4" y="7" width="1" height="1" fill="#112260"/>
  <rect x="5" y="7" width="1" height="1" fill="#aebff4"/>
  <rect x="6" y="7" width="1" height="1" fill="#aebff4"/>
  <rect x="33" y="7" width="1" height="1" fill="#7690e7"/>
  <rect x="34" y="7" width="1" height="1" fill="#7690e7"/>
  <rect x="35" y="7" width="1" height="1" fill="#112260"/>
  <rect x="4" y="8" width="1" height="1" fill="#112260"/>
  <rect x="5" y="8" width="1" height="1" fill="#aebff4"/>
  <rect x="6" y="8" width="1" height="1" fill="#aebff4"/>
  <rect x="33" y="8" width="1" height="1" fill="#7690e7"/>
  <rect x="34" y="8" width="1" height="1" fill="#7690e7"/>
  <rect x="35" y="8" width="1" height="1" fill="#112260"/>
  <rect x="4" y="9" width="1" height="1" fill="#112260"/>
  <rect x="5" y="9" width="1" height="1" fill="#aebff4"/>
  <rect x="6" y="9" width="1" height="1" fill="#aebff4"/>
  <rect x="33" y="9" width="1" height="1" fill="#7690e7"/>
  <rect x="34" y="9" width="1" height="1" fill="#7690e7"/>
  <rect x="35" y="9" width="1" height="1" fill="#112260"/>
  <rect x="4" y="10" width="1" height="1" fill="#112260"/>
  <rect x="5" y="10" width="1" height="1" fill="#aebff4"/>
  <rect x="6" y="10" width="1" height="1" fill="#aebff4"/>
  <rect x="33" y="10" width="1" height="1" fill="#7690e7"/>
  <rect x="34" y="10" width="1" height="1" fill="#7690e7"/>
  <rect x="35" y="10" width="1" height="1" fill="#112260"/>
  <rect x="4" y="11" width="1" height="1" fill="#112260"/>
  <rect x="5" y="11" width="1" height="1" fill="#aebff4"/>
  <rect x="6" y="11" width="1" height="1" fill="#aebff4"/>
  <rect x="33" y="11" width="1" height="1" fill="#7690e7"/>
  <rect x="34" y="11" width="1" height="1" fill="#7690e7"/>
  <rect x="35" y="11" width="1" height="1" fill="#112260"/>
  <rect x="4" y="12" width="1" height="1" fill="#112260"/>
  <rect x="5" y="12" width="1" height="1" fill="#aebff4"/>
  <rect x="6" y="12" width="1" height="1" fill="#aebff4"/>
  <rect x="33" y="12" width="1" height="1" fill="#7690e7"/>
  <rect x="34" y="12" width="1" height="1" fill="#7690e7"/>
  <rect x="35" y="12" width="1" height="1" fill="#112260"/>
  <rect x="4" y="13" width="1" height="1" fill="#112260"/>
  <rect x="5" y="13" width="1" height="1" fill="#aebff4"/>
  <rect x="6" y="13" width="1" height="1" fill="#aebff4"/>
  <rect x="33" y="13" width="1" height="1" fill="#7690e7"/>
  <rect x="34" y="13" width="1" height="1" fill="#7690e7"/>
  <rect x="35" y="13" width="1" height="1" fill="#112260"/>
  <rect x="4" y="14" width="1" height="1" fill="#112260"/>
  <rect x="5" y="14" width="1" height="1" fill="#aebff4"/>
  <rect x="6" y="14" width="1" height="1" fill="#aebff4"/>
  <rect x="33" y="14" width="1" height="1" fill="#7690e7"/>
  <rect x="34" y="14" width="1" height="1" fill="#7690e7"/>
  <rect x="35" y="14" width="1" height="1" fill="#112260"/>
  <rect x="4" y="15" width="1" height="1" fill="#112260"/>
  <rect x="5" y="15" width="1" height="1" fill="#aebff4"/>
  <rect x="6" y="15" width="1" height="1" fill="#aebff4"/>
  <rect x="33" y="15" width="1" height="1" fill="#7690e7"/>
  <rect x="34" y="15" width="1" height="1" fill="#475c9f"/>
  <rect x="35" y="15" width="1" height="1" fill="#112260"/>
  <rect x="4" y="16" width="1" height="1" fill="#112260"/>
  <rect x="5" y="16" width="1" height="1" fill="#aebff4"/>
  <rect x="6" y="16" width="1" height="1" fill="#aebff4"/>
  <rect x="33" y="16" width="1" height="1" fill="#475c9f"/>
  <rect x="34" y="16" width="1" height="1" fill="#475c9f"/>
  <rect x="35" y="16" width="1" height="1" fill="#112260"/>
  <rect x="4" y="17" width="1" height="1" fill="#112260"/>
  <rect x="5" y="17" width="1" height="1" fill="#aebff4"/>
  <rect x="6" y="17" width="1" height="1" fill="#aebff4"/>
  <rect x="33" y="17" width="1" height="1" fill="#475c9f"/>
  <rect x="34" y="17" width="1" height="1" fill="#475c9f"/>
  <rect x="35" y="17" width="1" height="1" fill="#112260"/>
  <rect x="4" y="18" width="1" height="1" fill="#112260"/>
  <rect x="5" y="18" width="1" height="1" fill="#aebff4"/>
  <rect x="6" y="18" width="1" height="1" fill="#aebff4"/>
  <rect x="33" y="18" width="1" height="1" fill="#475c9f"/>
  <rect x="34" y="18" width="1" height="1" fill="#475c9f"/>
  <rect x="35" y="18" width="1" height="1" fill="#112260"/>
  <rect x="4" y="19" width="1" height="1" fill="#112260"/>
  <rect x="5" y="19" width="1" height="1" fill="#aebff4"/>
  <rect x="6" y="19" width="1" height="1" fill="#aebff4"/>
  <rect x="33" y="19" width="1" height="1" fill="#475c9f"/>
  <rect x="34" y="19" width="1" height="1" fill="#475c9f"/>
  <rect x="35" y="19" width="1" height="1" fill="#112260"/>
  <rect x="4" y="20" width="1" height="1" fill="#112260"/>
  <rect x="5" y="20" width="1" height="1" fill="#aebff4"/>
  <rect x="6" y="20" width="1" height="1" fill="#aebff4"/>
  <rect x="33" y="20" width="1" height="1" fill="#475c9f"/>
  <rect x="34" y="20" width="1" height="1" fill="#475c9f"/>
  <rect x="35" y="20" width="1" height="1" fill="#112260"/>
  <rect x="4" y="21" width="1" height="1" fill="#112260"/>
  <rect x="5" y="21" width="1" height="1" fill="#aebff4"/>
  <rect x="6" y="21" width="1" height="1" fill="#aebff4"/>
  <rect x="33" y="21" width="1" height="1" fill="#475c9f"/>
  <rect x="34" y="21" width="1" height="1" fill="#475c9f"/>
  <rect x="35" y="21" width="1" height="1" fill="#112260"/>
  <rect x="4" y="22" width="1" height="1" fill="#112260"/>
  <rect x="5" y="22" width="1" height="1" fill="#aebff4"/>
  <rect x="6" y="22" width="1" height="1" fill="#aebff4"/>
  <rect x="33" y="22" width="1" height="1" fill="#475c9f"/>
  <rect x="34" y="22" width="1" height="1" fill="#475c9f"/>
  <rect x="35" y="22" width="1" height="1" fill="#112260"/>
  <rect x="4" y="23" width="1" height="1" fill="#112260"/>
  <rect x="5" y="23" width="1" height="1" fill="#aebff4"/>
  <rect x="6" y="23" width="1" height="1" fill="#aebff4"/>
  <rect x="33" y="23" width="1" height="1" fill="#475c9f"/>
  <rect x="34" y="23" width="1" height="1" fill="#475c9f"/>
  <rect x="35" y="23" width="1" height="1" fill="#112260"/>
  <rect x="4" y="24" width="1" height="1" fill="#112260"/>
  <rect x="5" y="24" width="1" height="1" fill="#aebff4"/>
  <rect x="6" y="24" width="1" height="1" fill="#7690e7"/>
  <rect x="33" y="24" width="1" height="1" fill="#475c9f"/>
  <rect x="34" y="24" width="1" height="1" fill="#475c9f"/>
  <rect x="35" y="24" width="1" height="1" fill="#112260"/>
  <rect x="4" y="25" width="1" height="1" fill="#112260"/>
  <rect x="5" y="25" width="1" height="1" fill="#7690e7"/>
  <rect x="6" y="25" width="1" height="1" fill="#7690e7"/>
  <rect x="33" y="25" width="1" height="1" fill="#475c9f"/>
  <rect x="34" y="25" width="1" height="1" fill="#475c9f"/>
  <rect x="35" y="25" width="1" height="1" fill="#112260"/>
  <rect x="4" y="26" width="1" height="1" fill="#112260"/>
  <rect x="5" y="26" width="1" height="1" fill="#7690e7"/>
  <rect x="6" y="26" width="1" height="1" fill="#7690e7"/>
  <rect x="33" y="26" width="1" height="1" fill="#475c9f"/>
  <rect x="34" y="26" width="1" height="1" fill="#475c9f"/>
  <rect x="35" y="26" width="1" height="1" fill="#112260"/>
  <rect x="4" y="27" width="1" height="1" fill="#112260"/>
  <rect x="5" y="27" width="1" height="1" fill="#7690e7"/>
  <rect x="6" y="27" width="1" height="1" fill="#7690e7"/>
  <rect x="33" y="27" width="1" height="1" fill="#475c9f"/>
  <rect x="34" y="27" width="1" height="1" fill="#475c9f"/>
  <rect x="35" y="27" width="1" height="1" fill="#112260"/>
  <rect x="4" y="28" width="1" height="1" fill="#112260"/>
  <rect x="5" y="28" width="1" height="1" fill="#7690e7"/>
  <rect x="6" y="28" width="1" height="1" fill="#7690e7"/>
  <rect x="33" y="28" width="1" height="1" fill="#475c9f"/>
  <rect x="34" y="28" width="1" height="1" fill="#475c9f"/>
  <rect x="35" y="28" width="1" height="1" fill="#112260"/>
  <rect x="4" y="29" width="1" height="1" fill="#112260"/>
  <rect x="5" y="29" width="1" height="1" fill="#7690e7"/>
  <rect x="6" y="29" width="1" height="1" fill="#7690e7"/>
  <rect x="33" y="29" width="1" height="1" fill="#475c9f"/>
  <rect x="34" y="29" width="1" height="1" fill="#475c9f"/>
  <rect x="35" y="29" width="1" height="1" fill="#112260"/>
  <rect x="4" y="30" width="1" height="1" fill="#112260"/>
  <rect x="5" y="30" width="1" height="1" fill="#7690e7"/>
  <rect x="6" y="30" width="1" height="1" fill="#7690e7"/>
  <rect x="33" y="30" width="1" height="1" fill="#475c9f"/>
  <rect x="34" y="30" width="1" height="1" fill="#475c9f"/>
  <rect x="35" y="30" width="1" height="1" fill="#112260"/>
  <rect x="4" y="31" width="1" height="1" fill="#112260"/>
  <rect x="5" y="31" width="1" height="1" fill="#7690e7"/>
  <rect x="6" y="31" width="1" height="1" fill="#7690e7"/>
  <rect x="33" y="31" width="1" height="1" fill="#475c9f"/>
  <rect x="34" y="31" width="1" height="1" fill="#475c9f"/>
  <rect x="35" y="31" width="1" height="1" fill="#112260"/>
  <rect x="4" y="32" width="1" height="1" fill="#112260"/>
  <rect x="5" y="32" width="1" height="1" fill="#7690e7"/>
  <rect x="6" y="32" width="1" height="1" fill="#7690e7"/>
  <rect x="33" y="32" width="1" height="1" fill="#475c9f"/>
  <rect x="34" y="32" width="1" height="1" fill="#475c9f"/>
  <rect x="35" y="32" width="1" height="1" fill="#112260"/>
  <rect x="4" y="33" width="1" height="1" fill="#112260"/>
  <rect x="5" y="33" width="1" height="1" fill="#7690e7"/>
  <rect x="6" y="33" width="1" height="1" fill="#7690e7"/>
  <rect x="7" y="33" width="1" height="1" fill="#7690e7"/>
  <rect x="8" y="33" width="1" height="1" fill="#7690e7"/>
  <rect x="9" y="33" width="1" height="1" fill="#7690e7"/>
  <rect x="10" y="33" width="1" height="1" fill="#7690e7"/>
  <rect x="11" y="33" width="1" height="1" fill="#7690e7"/>
  <rect x="12" y="33" width="1" height="1" fill="#7690e7"/>
  <rect x="13" y="33" width="1" height="1" fill="#7690e7"/>
  <rect x="14" y="33" width="1" height="1" fill="#7690e7"/>
  <rect x="15" y="33" width="1" height="1" fill="#7690e7"/>
  <rect x="16" y="33" width="1" height="1" fill="#7690e7"/>
  <rect x="17" y="33" width="1" height="1" fill="#7690e7"/>
  <rect x="18" y="33" width="1" height="1" fill="#7690e7"/>
  <rect x="19" y="33" width="1" height="1" fill="#475c9f"/>
  <rect x="20" y="33" width="1" height="1" fill="#475c9f"/>
  <rect x="21" y="33" width="1" height="1" fill="#475c9f"/>
  <rect x="22" y="33" width="1" height="1" fill="#475c9f"/>
  <rect x="23" y="33" width="1" height="1" fill="#475c9f"/>
  <rect x="24" y="33" width="1" height="1" fill="#475c9f"/>
  <rect x="25" y="33" width="1" height="1" fill="#475c9f"/>
  <rect x="26" y="33" width="1" height="1" fill="#475c9f"/>
  <rect x="27" y="33" width="1" height="1" fill="#475c9f"/>
  <rect x="28" y="33" width="1" height="1" fill="#475c9f"/>
  <rect x="29" y="33" width="1" height="1" fill="#475c9f"/>
  <rect x="30" y="33" width="1" height="1" fill="#475c9f"/>
  <rect x="31" y="33" width="1" height="1" fill="#475c9f"/>
  <rect x="32" y="33" width="1" height="1" fill="#475c9f"/>
  <rect x="33" y="33" width="1" height="1" fill="#475c9f"/>
  <rect x="34" y="33" width="1" height="1" fill="#475c9f"/>
  <rect x="35" y="33" width="1" height="1" fill="#112260"/>
  <rect x="4" y="34" width="1" height="1" fill="#112260"/>
  <rect x="5" y="34" width="1" height="1" fill="#7690e7"/>
  <rect x="6" y="34" width="1" height="1" fill="#7690e7"/>
  <rect x="7" y="34" width="1" height="1" fill="#7690e7"/>
  <rect x="8" y="34" width="1" height="1" fill="#7690e7"/>
  <rect x="9" y="34" width="1" height="1" fill="#7690e7"/>
  <rect x="10" y="34" width="1" height="1" fill="#7690e7"/>
  <rect x="11" y="34" width="1" height="1" fill="#7690e7"/>
  <rect x="12" y="34" width="1" height="1" fill="#7690e7"/>
  <rect x="13" y="34" width="1" height="1" fill="#7690e7"/>
  <rect x="14" y="34" width="1" height="1" fill="#7690e7"/>
  <rect x="15" y="34" width="1" height="1" fill="#7690e7"/>
  <rect x="16" y="34" width="1" height="1" fill="#7690e7"/>
  <rect x="17" y="34" width="1" height="1" fill="#7690e7"/>
  <rect x="18" y="34" width="1" height="1" fill="#475c9f"/>
  <rect x="19" y="34" width="1" height="1" fill="#475c9f"/>
  <rect x="20" y="34" width="1" height="1" fill="#475c9f"/>
  <rect x="21" y="34" width="1" height="1" fill="#475c9f"/>
  <rect x="22" y="34" width="1" height="1" fill="#475c9f"/>
  <rect x="23" y="34" width="1" height="1" fill="#475c9f"/>
  <rect x="24" y="34" width="1" height="1" fill="#475c9f"/>
  <rect x="25" y="34" width="1" height="1" fill="#475c9f"/>
  <rect x="26" y="34" width="1" height="1" fill="#475c9f"/>
  <rect x="27" y="34" width="1" height="1" fill="#475c9f"/>
  <rect x="28" y="34" width="1" height="1" fill="#475c9f"/>
  <rect x="29" y="34" width="1" height="1" fill="#475c9f"/>
  <rect x="30" y="34" width="1" height="1" fill="#475c9f"/>
  <rect x="31" y="34" width="1" height="1" fill="#475c9f"/>
  <rect x="32" y="34" width="1" height="1" fill="#475c9f"/>
  <rect x="33" y="34" width="1" height="1" fill="#475c9f"/>
  <rect x="34" y="34" width="1" height="1" fill="#475c9f"/>
  <rect x="35" y="34" width="1" height="1" fill="#112260"/>
  <rect x="4" y="35" width="1" height="1" fill="#112260"/>
  <rect x="5" y="35" width="1" height="1" fill="#112260"/>
  <rect x="6" y="35" width="1" height="1" fill="#112260"/>
  <rect x="7" y="35" width="1" height="1" fill="#112260"/>
  <rect x="8" y="35" width="1" height="1" fill="#112260"/>
  <rect x="9" y="35" width="1" height="1" fill="#112260"/>
  <rect x="10" y="35" width="1" height="1" fill="#112260"/>
  <rect x="11" y="35" width="1" height="1" fill="#112260"/>
  <rect x="12" y="35" width="1" height="1" fill="#112260"/>
  <rect x="13" y="35" width="1" height="1" fill="#112260"/>
  <rect x="14" y="35" width="1" height="1" fill="#112260"/>
  <rect x="15" y="35" width="1" height="1" fill="#112260"/>
  <rect x="16" y="35" width="1" height="1" fill="#112260"/>
  <rect x="17" y="35" width="1" height="1" fill="#112260"/>
  <rect x="18" y="35" width="1" height="1" fill="#112260"/>
  <rect x="19" y="35" width="1" height="1" fill="#112260"/>
  <rect x="20" y="35" width="1" height="1" fill="#112260"/>
  <rect x="21" y="35" width="1" height="1" fill="#112260"/>
  <rect x="22" y="35" width="1" height="1" fill="#112260"/>
  <rect x="23" y="35" width="1" height="1" fill="#112260"/>
  <rect x="24" y="35" width="1" height="1" fill="#112260"/>
  <rect x="25" y="35" width="1" height="1" fill="#112260"/>
  <rect x="26" y="35" width="1" height="1" fill="#112260"/>
  <rect x="27" y="35" width="1" height="1" fill="#112260"/>
  <rect x="28" y="35" width="1" height="1" fill="#112260"/>
  <rect x="29" y="35" width="1" height="1" fill="#112260"/>
  <rect x="30" y="35" width="1" height="1" fill="#112260"/>
  <rect x="31" y="35" width="1" height="1" fill="#112260"/>
  <rect x="32" y="35" width="1" height="1" fill="#112260"/>
  <rect x="33" y="35" width="1" height="1" fill="#112260"/>
  <rect x="34" y="35" width="1" height="1" fill="#112260"/>
  <rect x="35" y="35" width="1" height="1" fill="#112260"/>
</svg>
